<svg version="1.1" id="Layer_1" xmlns="http://www.w3.org/2000/svg" xmlns:xlink="http://www.w3.org/1999/xlink" x="0px" y="0px"
	 width="100%" viewBox="0 0 225 225" enable-background="new 0 0 225 225" xml:space="preserve">
<path fill="#FEFFFF" opacity="1.000000" stroke="none" 
	d="
M135.000000,226.000000 
	C90.373070,226.000000 45.746132,226.000000 1.059599,226.000000 
	C1.059599,151.106491 1.059599,76.212914 1.059599,1.000000 
	C45.020378,1.000000 89.041534,1.000000 133.435730,1.321968 
	C96.798683,38.707993 59.788605,75.772049 23.405270,112.208450 
	C35.100388,124.072464 46.294033,135.427765 57.613636,146.910843 
	C58.320343,146.269241 59.204018,145.532150 60.014484,144.721848 
	C106.895515,97.849838 153.772568,50.973854 200.630615,4.078869 
	C201.538345,3.170421 202.215347,2.031428 203.000000,1.000000 
	C210.654312,1.000000 218.308640,1.000000 225.956558,1.000005 
	C225.950165,76.000015 225.950165,151.000015 225.950165,226.000000 
	C218.246017,226.000000 210.591690,226.000000 202.604614,225.908829 
	C202.271851,225.817657 202.195312,225.499374 202.308731,225.113647 
	C182.655121,204.793686 162.888077,184.859436 143.174438,164.712708 
	C143.227844,164.500214 143.336990,164.075836 143.637299,163.953690 
	C163.633896,144.206635 183.330200,124.581726 203.862488,104.123863 
	C180.492218,104.123863 158.668106,104.091385 136.844620,104.194969 
	C135.347290,104.202080 133.455231,104.822632 132.423538,105.842537 
	C124.496460,113.679108 116.736885,121.685112 108.610466,129.789780 
	C96.915649,141.529617 85.535683,153.118210 75.096100,163.749176 
	C86.308647,175.518784 97.542046,187.310272 108.905182,199.416565 
	C117.625526,208.232040 126.216110,216.732712 134.813400,225.435516 
	C134.820099,225.637680 135.000000,226.000000 135.000000,226.000000 
z"/>
<path fill="#47C5FB" opacity="1.000000" stroke="none" 
	d="
M202.531342,1.000000 
	C202.215347,2.031428 201.538345,3.170421 200.630615,4.078869 
	C153.772568,50.973854 106.895515,97.849838 60.014484,144.721848 
	C59.204018,145.532150 58.320343,146.269241 57.613636,146.910843 
	C46.294033,135.427765 35.100388,124.072464 23.405270,112.208450 
	C59.788605,75.772049 96.798683,38.707993 133.904388,1.321968 
	C156.687561,1.000000 179.375122,1.000000 202.531342,1.000000 
z"/>
<path fill="#7A96BE" opacity="1.000000" stroke="none" 
	d="
M135.468658,226.000000 
	C135.000000,226.000000 134.820099,225.637680 135.290588,225.363586 
	C154.290161,225.062607 172.819244,225.009140 191.348251,225.031723 
	C194.964127,225.036118 198.579636,225.335846 202.195312,225.499374 
	C202.195312,225.499374 202.271851,225.817657 202.135925,225.908829 
	C179.979111,226.000000 157.958206,226.000000 135.468658,226.000000 
z"/>
<path fill="#47C5FB" opacity="1.000000" stroke="none" 
	d="
M108.925308,129.638519 
	C116.736885,121.685112 124.496460,113.679108 132.423538,105.842537 
	C133.455231,104.822632 135.347290,104.202080 136.844620,104.194969 
	C158.668106,104.091385 180.492218,104.123863 203.862488,104.123863 
	C183.330200,124.581726 163.633896,144.206635 143.295807,163.844620 
	C135.226700,156.545227 127.742920,149.288925 120.394821,141.897705 
	C116.451263,137.930984 112.740906,133.732437 108.925308,129.638519 
z"/>
<path fill="#02579E" opacity="1.000000" stroke="none" 
	d="
M202.308731,225.113647 
	C198.579636,225.335846 194.964127,225.036118 191.348251,225.031723 
	C172.819244,225.009140 154.290161,225.062607 135.283905,225.161438 
	C126.216110,216.732712 117.625526,208.232040 109.114716,199.142029 
	C111.798637,196.385101 114.402763,194.217514 116.991493,192.405518 
	C116.105095,194.820114 116.165855,196.466995 119.009064,195.914978 
	C120.730118,195.580856 122.336365,194.655411 124.354401,193.962372 
	C130.237213,191.412415 134.376801,182.160858 133.060822,175.365692 
	C136.523605,171.700729 139.822327,168.312958 143.121048,164.925186 
	C162.888077,184.859436 182.655121,204.793686 202.308731,225.113647 
z"/>
<path fill="#01B4F7" opacity="1.000000" stroke="none" 
	d="
M143.174438,164.712708 
	C139.822327,168.312958 136.523605,171.700729 132.788208,175.555817 
	C130.872543,177.558990 129.393555,179.094864 127.621735,180.820587 
	C123.888229,184.690277 120.447563,188.370087 117.006897,192.049911 
	C114.402763,194.217514 111.798637,196.385101 108.984970,198.827240 
	C97.542046,187.310272 86.308647,175.518784 75.096100,163.749176 
	C85.535683,153.118210 96.915649,141.529617 108.610466,129.789780 
	C112.740906,133.732437 116.451263,137.930984 120.394821,141.897705 
	C127.742920,149.288925 135.226700,156.545227 142.995499,163.966766 
	C143.336990,164.075836 143.227844,164.500214 143.174438,164.712708 
z"/>
<path fill="#004D8F" opacity="1.000000" stroke="none" 
	d="
M127.914558,180.630722 
	C129.393555,179.094864 130.872543,177.558990 132.624130,175.832993 
	C134.376801,182.160858 130.237213,191.412415 124.396103,193.590546 
	C125.356583,189.044907 126.635567,184.837814 127.914558,180.630722 
z"/>
<path fill="#003F76" opacity="1.000000" stroke="none" 
	d="
M127.621735,180.820587 
	C126.635567,184.837814 125.356583,189.044907 124.035896,193.623810 
	C122.336365,194.655411 120.730118,195.580856 119.009064,195.914978 
	C116.165855,196.466995 116.105095,194.820114 116.991493,192.405518 
	C120.447563,188.370087 123.888229,184.690277 127.621735,180.820587 
z"/>
</svg>