<svg version="1.1" id="Layer_1" xmlns="http://www.w3.org/2000/svg" xmlns:xlink="http://www.w3.org/1999/xlink" x="0px" y="0px"
	 width="100%" viewBox="0 0 960 540" enable-background="new 0 0 960 540" xml:space="preserve">
<path fill="#DAECD6" opacity="1.000000" stroke="none" 
	d="
M701.000000,541.000000 
	C467.333344,541.000000 234.166672,541.000000 1.000000,541.000000 
	C1.000000,361.000000 1.000000,181.000000 1.000000,1.000000 
	C321.000000,1.000000 641.000000,1.000000 961.000000,1.000000 
	C961.000000,181.000000 961.000000,361.000000 961.000000,541.000000 
	C874.500000,541.000000 788.000000,541.000000 701.000000,541.000000 
M479.842560,142.430954 
	C476.304169,139.157700 472.924316,135.691040 469.203186,132.640686 
	C424.676849,96.140732 373.816986,83.029915 317.452179,93.590225 
	C276.181458,101.322556 241.518646,121.592232 214.443924,154.005997 
	C177.130753,198.677246 163.973389,249.983368 174.665863,306.945099 
	C182.357040,347.918091 202.763092,382.078094 234.575485,409.170593 
	C272.070251,441.102417 315.435547,455.185181 364.634308,452.222015 
	C391.912292,450.579071 417.288361,443.093384 441.045013,429.907959 
	C455.508484,421.880463 468.755310,412.147583 480.544220,400.032013 
	C480.544220,400.032013 480.975708,400.064026 481.302856,400.639130 
	C491.004028,408.466003 500.108063,417.214874 510.513580,423.954224 
	C548.031311,448.253265 589.275879,456.723877 633.558228,451.083984 
	C671.457336,446.257050 704.637329,430.928284 732.233032,404.793518 
	C780.633606,358.955292 799.493347,302.338501 787.437805,236.971069 
	C773.389648,160.800140 711.195862,100.469658 628.950378,91.094330 
	C598.619324,87.636833 569.128601,91.831635 540.830933,103.240097 
	C518.220093,112.355835 497.824829,125.033333 480.590149,142.995117 
	C480.590149,142.995117 480.187347,143.021988 479.842560,142.430954 
z"/>
<path fill="#F9717E" opacity="1.000000" stroke="none" 
	d="
M480.992859,142.964325 
	C497.824829,125.033333 518.220093,112.355835 540.830933,103.240097 
	C569.128601,91.831635 598.619324,87.636833 628.950378,91.094330 
	C711.195862,100.469658 773.389648,160.800140 787.437805,236.971069 
	C799.493347,302.338501 780.633606,358.955292 732.233032,404.793518 
	C704.637329,430.928284 671.457336,446.257050 633.558228,451.083984 
	C589.275879,456.723877 548.031311,448.253265 510.513580,423.954224 
	C500.108063,417.214874 491.004028,408.466003 481.294952,400.052277 
	C491.688599,389.320068 500.471405,377.931610 508.037598,365.519958 
	C523.388306,340.338470 532.011292,312.946655 533.753174,283.670715 
	C534.516479,270.841217 533.400269,257.776947 531.909424,244.962173 
	C528.925903,219.317001 520.095642,195.527222 505.560394,174.199677 
	C498.117767,163.279083 489.228394,153.344513 480.992859,142.964325 
M589.858582,254.501511 
	C589.858582,248.749496 589.858582,242.997498 589.858582,237.397247 
	C583.072693,237.397247 577.167114,237.397247 571.135864,237.397247 
	C571.135864,255.450241 570.651917,273.117645 571.280151,290.745453 
	C571.840881,306.479218 580.444763,316.259186 595.017517,319.317627 
	C598.393677,320.026184 601.965881,319.980377 605.447571,319.976715 
	C626.780457,319.954437 638.782593,307.965271 638.930115,286.497375 
	C639.031982,271.665833 638.986328,256.833282 639.005981,242.001175 
	C639.008057,240.420609 639.006226,238.840027 639.006226,237.409119 
	C632.278870,237.409119 626.378296,237.409119 620.141357,237.409119 
	C620.141357,239.634140 620.143494,241.445724 620.141052,243.257294 
	C620.120911,258.089294 620.308960,272.925476 620.014648,287.752045 
	C619.769531,300.101807 611.483704,306.242432 600.073303,303.055084 
	C593.919434,301.336060 590.136047,295.811127 589.974060,287.496552 
	C589.766357,276.834595 589.882080,266.166321 589.858582,254.501511 
M675.005920,266.503784 
	C675.005920,261.407257 675.005920,256.310760 675.005920,251.289444 
	C677.724609,251.055283 679.661560,250.888458 681.590576,250.722305 
	C681.590576,245.990189 681.590576,241.617004 681.590576,237.287170 
	C670.744873,237.287170 660.316895,237.287170 649.726929,237.287170 
	C649.726929,241.951965 649.726929,246.318802 649.726929,250.656418 
	C652.051208,250.949951 653.961670,251.191238 655.810181,251.424698 
	C655.810181,269.401703 655.810181,286.979553 655.810181,304.671692 
	C653.586670,304.928040 651.676086,305.148315 649.604370,305.387146 
	C649.604370,309.923462 649.604370,314.175201 649.604370,318.696533 
	C660.444824,318.696533 670.990417,318.696533 681.619263,318.696533 
	C681.619263,313.998993 681.619263,309.616638 681.619263,305.232086 
	C679.297424,305.041870 677.360229,304.883148 675.005920,304.690277 
	C675.005920,292.084778 675.005920,279.793427 675.005920,266.503784 
z"/>
<path fill="#8AC59C" opacity="1.000000" stroke="none" 
	d="
M480.112396,400.004517 
	C468.755310,412.147583 455.508484,421.880463 441.045013,429.907959 
	C417.288361,443.093384 391.912292,450.579071 364.634308,452.222015 
	C315.435547,455.185181 272.070251,441.102417 234.575485,409.170593 
	C202.763092,382.078094 182.357040,347.918091 174.665863,306.945099 
	C163.973389,249.983368 177.130753,198.677246 214.443924,154.005997 
	C241.518646,121.592232 276.181458,101.322556 317.452179,93.590225 
	C373.816986,83.029915 424.676849,96.140732 469.203186,132.640686 
	C472.924316,135.691040 476.304169,139.157700 479.839539,143.023102 
	C475.532959,148.473038 470.970642,153.127441 466.967041,158.221039 
	C437.398224,195.840454 424.159088,238.446274 427.823456,286.297668 
	C430.014069,314.903900 438.296844,341.587524 453.675049,365.673676 
	C461.417572,377.800415 471.233856,388.603088 480.112396,400.004517 
M297.252838,270.499969 
	C297.192017,276.995544 297.378601,283.505249 297.008667,289.983185 
	C296.531189,298.344604 291.115906,303.494446 282.926544,303.960480 
	C275.334137,304.392517 269.416168,299.599640 267.904846,291.562164 
	C267.355774,288.642029 267.018707,285.638550 266.997528,282.670135 
	C266.902466,269.343628 266.964691,256.016022 266.945282,242.688812 
	C266.942688,240.921265 266.797455,239.153900 266.717010,237.358063 
	C260.292145,237.358063 254.395554,237.358063 248.291443,237.358063 
	C248.291443,255.344711 247.314178,273.035767 248.566528,290.567535 
	C249.816833,308.070496 257.653381,316.380280 272.565918,319.403015 
	C276.743591,320.249817 281.180939,320.015656 285.494720,319.955750 
	C303.094604,319.711304 315.442474,307.719696 315.924225,290.211639 
	C316.358887,274.413025 316.495514,258.606049 316.732819,242.802292 
	C316.759552,241.022598 316.587067,239.239929 316.500671,237.319748 
	C309.963562,237.319748 303.899719,237.319748 297.253326,237.319748 
	C297.253326,248.259445 297.253326,258.879730 297.252838,270.499969 
M363.094543,265.229156 
	C359.147614,256.798828 355.273163,248.332962 351.175415,239.976608 
	C350.561646,238.724930 348.934753,237.193726 347.719666,237.142548 
	C341.120300,236.864594 334.503143,237.010529 326.982300,237.010529 
	C328.634705,239.979706 329.867188,242.269516 331.168396,244.519608 
	C336.913086,254.453506 342.532440,264.464813 348.523499,274.248322 
	C350.317749,277.178345 350.111298,279.222992 348.283722,281.879211 
	C344.704742,287.080933 341.396454,292.469940 338.013428,297.805084 
	C333.696655,304.612885 329.416809,311.444153 324.654572,319.005981 
	C331.481934,319.005981 337.282227,318.837311 343.065948,319.073853 
	C346.175232,319.200989 347.817749,318.110443 349.220398,315.328400 
	C353.526520,306.787689 358.158844,298.411438 362.986053,289.368622 
	C367.773651,298.446869 372.175812,306.947388 376.763794,315.346405 
	C377.546997,316.780212 379.073303,318.749725 380.344421,318.817444 
	C386.919403,319.167664 393.523041,318.980164 400.782654,318.980164 
	C399.674896,316.893921 398.990753,315.430420 398.155060,314.059387 
	C391.489960,303.124481 384.902435,292.139679 378.039246,281.330048 
	C376.238617,278.494049 376.445404,276.530121 378.174835,273.767303 
	C384.881348,263.053680 391.301697,252.160629 397.802887,241.318970 
	C398.528015,240.109711 399.089355,238.802231 400.002625,236.993866 
	C395.658264,236.993866 391.941864,237.458420 388.388214,236.895554 
	C381.351898,235.781067 377.558929,238.602921 374.778961,245.034866 
	C371.671204,252.225128 367.352631,258.892059 363.094543,265.229156 
z"/>
<path fill="#F26270" opacity="1.000000" stroke="none" 
	d="
M480.328308,400.018250 
	C471.233856,388.603088 461.417572,377.800415 453.675049,365.673676 
	C438.296844,341.587524 430.014069,314.903900 427.823456,286.297668 
	C424.159088,238.446274 437.398224,195.840454 466.967041,158.221039 
	C470.970642,153.127441 475.532959,148.473038 480.011963,143.318634 
	C480.187347,143.021988 480.590149,142.995117 480.791504,142.979721 
	C489.228394,153.344513 498.117767,163.279083 505.560394,174.199677 
	C520.095642,195.527222 528.925903,219.317001 531.909424,244.962173 
	C533.400269,257.776947 534.516479,270.841217 533.753174,283.670715 
	C532.011292,312.946655 523.388306,340.338470 508.037598,365.519958 
	C500.471405,377.931610 491.688599,389.320068 481.131378,399.764709 
	C480.975708,400.064026 480.544220,400.032013 480.328308,400.018250 
z"/>
<path fill="#FFFDFD" opacity="1.000000" stroke="none" 
	d="
M589.858521,255.001144 
	C589.882080,266.166321 589.766357,276.834595 589.974060,287.496552 
	C590.136047,295.811127 593.919434,301.336060 600.073303,303.055084 
	C611.483704,306.242432 619.769531,300.101807 620.014648,287.752045 
	C620.308960,272.925476 620.120911,258.089294 620.141052,243.257294 
	C620.143494,241.445724 620.141357,239.634140 620.141357,237.409119 
	C626.378296,237.409119 632.278870,237.409119 639.006226,237.409119 
	C639.006226,238.840027 639.008057,240.420609 639.005981,242.001175 
	C638.986328,256.833282 639.031982,271.665833 638.930115,286.497375 
	C638.782593,307.965271 626.780457,319.954437 605.447571,319.976715 
	C601.965881,319.980377 598.393677,320.026184 595.017517,319.317627 
	C580.444763,316.259186 571.840881,306.479218 571.280151,290.745453 
	C570.651917,273.117645 571.135864,255.450241 571.135864,237.397247 
	C577.167114,237.397247 583.072693,237.397247 589.858582,237.397247 
	C589.858582,242.997498 589.858582,248.749496 589.858521,255.001144 
z"/>
<path fill="#FFFDFD" opacity="1.000000" stroke="none" 
	d="
M675.005920,267.002930 
	C675.005920,279.793427 675.005920,292.084778 675.005920,304.690277 
	C677.360229,304.883148 679.297424,305.041870 681.619263,305.232086 
	C681.619263,309.616638 681.619263,313.998993 681.619263,318.696533 
	C670.990417,318.696533 660.444824,318.696533 649.604370,318.696533 
	C649.604370,314.175201 649.604370,309.923462 649.604370,305.387146 
	C651.676086,305.148315 653.586670,304.928040 655.810181,304.671692 
	C655.810181,286.979553 655.810181,269.401703 655.810181,251.424698 
	C653.961670,251.191238 652.051208,250.949951 649.726929,250.656418 
	C649.726929,246.318802 649.726929,241.951965 649.726929,237.287170 
	C660.316895,237.287170 670.744873,237.287170 681.590576,237.287170 
	C681.590576,241.617004 681.590576,245.990189 681.590576,250.722305 
	C679.661560,250.888458 677.724609,251.055283 675.005920,251.289444 
	C675.005920,256.310760 675.005920,261.407257 675.005920,267.002930 
z"/>
<path fill="#FCFEFD" opacity="1.000000" stroke="none" 
	d="
M297.253082,270.000000 
	C297.253326,258.879730 297.253326,248.259445 297.253326,237.319748 
	C303.899719,237.319748 309.963562,237.319748 316.500671,237.319748 
	C316.587067,239.239929 316.759552,241.022598 316.732819,242.802292 
	C316.495514,258.606049 316.358887,274.413025 315.924225,290.211639 
	C315.442474,307.719696 303.094604,319.711304 285.494720,319.955750 
	C281.180939,320.015656 276.743591,320.249817 272.565918,319.403015 
	C257.653381,316.380280 249.816833,308.070496 248.566528,290.567535 
	C247.314178,273.035767 248.291443,255.344711 248.291443,237.358063 
	C254.395554,237.358063 260.292145,237.358063 266.717010,237.358063 
	C266.797455,239.153900 266.942688,240.921265 266.945282,242.688812 
	C266.964691,256.016022 266.902466,269.343628 266.997528,282.670135 
	C267.018707,285.638550 267.355774,288.642029 267.904846,291.562164 
	C269.416168,299.599640 275.334137,304.392517 282.926544,303.960480 
	C291.115906,303.494446 296.531189,298.344604 297.008667,289.983185 
	C297.378601,283.505249 297.192017,276.995544 297.253082,270.000000 
z"/>
<path fill="#FDFEFD" opacity="1.000000" stroke="none" 
	d="
M363.327759,265.507935 
	C367.352631,258.892059 371.671204,252.225128 374.778961,245.034866 
	C377.558929,238.602921 381.351898,235.781067 388.388214,236.895554 
	C391.941864,237.458420 395.658264,236.993866 400.002625,236.993866 
	C399.089355,238.802231 398.528015,240.109711 397.802887,241.318970 
	C391.301697,252.160629 384.881348,263.053680 378.174835,273.767303 
	C376.445404,276.530121 376.238617,278.494049 378.039246,281.330048 
	C384.902435,292.139679 391.489960,303.124481 398.155060,314.059387 
	C398.990753,315.430420 399.674896,316.893921 400.782654,318.980164 
	C393.523041,318.980164 386.919403,319.167664 380.344421,318.817444 
	C379.073303,318.749725 377.546997,316.780212 376.763794,315.346405 
	C372.175812,306.947388 367.773651,298.446869 362.986053,289.368622 
	C358.158844,298.411438 353.526520,306.787689 349.220398,315.328400 
	C347.817749,318.110443 346.175232,319.200989 343.065948,319.073853 
	C337.282227,318.837311 331.481934,319.005981 324.654572,319.005981 
	C329.416809,311.444153 333.696655,304.612885 338.013428,297.805084 
	C341.396454,292.469940 344.704742,287.080933 348.283722,281.879211 
	C350.111298,279.222992 350.317749,277.178345 348.523499,274.248322 
	C342.532440,264.464813 336.913086,254.453506 331.168396,244.519608 
	C329.867188,242.269516 328.634705,239.979706 326.982300,237.010529 
	C334.503143,237.010529 341.120300,236.864594 347.719666,237.142548 
	C348.934753,237.193726 350.561646,238.724930 351.175415,239.976608 
	C355.273163,248.332962 359.147614,256.798828 363.327759,265.507935 
z"/>
</svg>